<svg width="30" height="30" viewBox="0 0 30 30" fill="none" xmlns="http://www.w3.org/2000/svg">
<g clip-path="url(#clip0)">
<path d="M26.8594 3.76764C23.4727 0.919985 18.2402 1.34772 15 4.64655C11.7598 1.34772 6.52735 0.914126 3.14063 3.76764C-1.26562 7.47663 -0.621087 13.5235 2.51954 16.7286L12.7969 27.1993C13.3828 27.7969 14.168 28.1309 15 28.1309C15.8379 28.1309 16.6172 27.8028 17.2031 27.2051L27.4805 16.7344C30.6152 13.5294 31.2715 7.48249 26.8594 3.76764V3.76764ZM25.4766 14.754L15.1992 25.2247C15.0586 25.3653 14.9414 25.3653 14.8008 25.2247L4.52344 14.754C2.38477 12.5743 1.95118 8.44928 4.95118 5.92389C7.23048 4.00788 10.7461 4.29499 12.9492 6.53913L15 8.63092L17.0508 6.53913C19.2656 4.28327 22.7813 4.00788 25.0488 5.91803C28.043 8.44342 27.5977 12.5919 25.4766 14.754V14.754Z" fill="#FC6E72"/>
</g>
<defs>
<clipPath id="clip0">
<rect width="30" height="30" fill="white"/>
</clipPath>
</defs>
</svg>
