<svg width="30" height="30" viewBox="0 0 30 30" fill="none" xmlns="http://www.w3.org/2000/svg">
<path d="M22.5 24.375C22.5 26.4469 20.4 28.125 17.8125 28.125C15.225 28.125 13.125 26.4469 13.125 24.375C13.125 22.3031 15.225 20.625 17.8125 20.625C20.4 20.625 22.5 22.3031 22.5 24.375Z" fill="black"/>
<path fill-rule="evenodd" clip-rule="evenodd" d="M22.5 5.625V24.375H20.625V5.625H22.5Z" fill="black"/>
<path d="M20.625 5.28744C20.6253 4.85414 20.7756 4.43431 21.0504 4.09932C21.3252 3.76433 21.7076 3.53487 22.1325 3.44994L27.7575 2.32494C28.0294 2.27059 28.31 2.27723 28.579 2.34438C28.8481 2.41153 29.0989 2.53752 29.3134 2.71327C29.5279 2.88902 29.7007 3.11016 29.8194 3.36075C29.9382 3.61134 29.9998 3.88515 30 4.16244V7.49994L20.625 9.37494V5.28744Z" fill="black"/>
<path fill-rule="evenodd" clip-rule="evenodd" d="M0 21.5625C0 21.3139 0.0987721 21.0754 0.274587 20.8996C0.450403 20.7238 0.68886 20.625 0.9375 20.625H7.5C7.74864 20.625 7.9871 20.7238 8.16291 20.8996C8.33873 21.0754 8.4375 21.3139 8.4375 21.5625C8.4375 21.8111 8.33873 22.0496 8.16291 22.2254C7.9871 22.4012 7.74864 22.5 7.5 22.5H0.9375C0.68886 22.5 0.450403 22.4012 0.274587 22.2254C0.0987721 22.0496 0 21.8111 0 21.5625ZM0 14.0625C0 13.8139 0.0987721 13.5754 0.274587 13.3996C0.450403 13.2238 0.68886 13.125 0.9375 13.125H15C15.2486 13.125 15.4871 13.2238 15.6629 13.3996C15.8387 13.5754 15.9375 13.8139 15.9375 14.0625C15.9375 14.3111 15.8387 14.5496 15.6629 14.7254C15.4871 14.9012 15.2486 15 15 15H0.9375C0.68886 15 0.450403 14.9012 0.274587 14.7254C0.0987721 14.5496 0 14.3111 0 14.0625ZM0 6.5625C0 6.31386 0.0987721 6.0754 0.274587 5.89959C0.450403 5.72377 0.68886 5.625 0.9375 5.625H15C15.2486 5.625 15.4871 5.72377 15.6629 5.89959C15.8387 6.0754 15.9375 6.31386 15.9375 6.5625C15.9375 6.81114 15.8387 7.0496 15.6629 7.22541C15.4871 7.40123 15.2486 7.5 15 7.5H0.9375C0.68886 7.5 0.450403 7.40123 0.274587 7.22541C0.0987721 7.0496 0 6.81114 0 6.5625Z" fill="black"/>
</svg>
