<svg width="30" height="30" viewBox="0 0 30 30" fill="none" xmlns="http://www.w3.org/2000/svg">
<path d="M12.5944 6.65625C12.7532 6.73277 12.8872 6.85252 12.9811 7.00177C13.075 7.15101 13.1248 7.3237 13.125 7.5V22.5C13.1247 22.6764 13.0747 22.8492 12.9807 22.9984C12.8867 23.1477 12.7524 23.2674 12.5934 23.3438C12.4344 23.4201 12.257 23.4501 12.0817 23.4302C11.9065 23.4103 11.7404 23.3413 11.6025 23.2313L7.17187 19.6875H2.8125C2.56386 19.6875 2.3254 19.5887 2.14959 19.4129C1.97377 19.2371 1.875 18.9986 1.875 18.75V11.25C1.875 11.0014 1.97377 10.7629 2.14959 10.5871C2.3254 10.4113 2.56386 10.3125 2.8125 10.3125H7.17187L11.6025 6.76875C11.7404 6.65848 11.9067 6.58941 12.0822 6.56951C12.2577 6.54961 12.4352 6.57968 12.5944 6.65625V6.65625ZM25.9762 10.5863C26.0636 10.6733 26.1328 10.7768 26.1801 10.8907C26.2273 11.0046 26.2517 11.1267 26.2517 11.25C26.2517 11.3733 26.2273 11.4954 26.1801 11.6093C26.1328 11.7232 26.0636 11.8267 25.9762 11.9138L22.8881 15L25.9762 18.0863C26.1523 18.2623 26.2512 18.501 26.2512 18.75C26.2512 18.999 26.1523 19.2377 25.9762 19.4138C25.8002 19.5898 25.5615 19.6887 25.3125 19.6887C25.0635 19.6887 24.8248 19.5898 24.6487 19.4138L21.5625 16.3256L18.4762 19.4138C18.3002 19.5898 18.0615 19.6887 17.8125 19.6887C17.5635 19.6887 17.3248 19.5898 17.1487 19.4138C16.9727 19.2377 16.8738 18.999 16.8738 18.75C16.8738 18.501 16.9727 18.2623 17.1487 18.0863L20.2369 15L17.1487 11.9138C17.0616 11.8266 16.9924 11.7231 16.9453 11.6092C16.8981 11.4953 16.8738 11.3733 16.8738 11.25C16.8738 11.1267 16.8981 11.0047 16.9453 10.8908C16.9924 10.7769 17.0616 10.6734 17.1487 10.5863C17.3248 10.4102 17.5635 10.3113 17.8125 10.3113C17.9358 10.3113 18.0578 10.3356 18.1717 10.3828C18.2856 10.4299 18.3891 10.4991 18.4762 10.5863L21.5625 13.6744L24.6487 10.5863C24.7358 10.4989 24.8393 10.4297 24.9532 10.3824C25.0671 10.3352 25.1892 10.3108 25.3125 10.3108C25.4358 10.3108 25.5579 10.3352 25.6718 10.3824C25.7857 10.4297 25.8892 10.4989 25.9762 10.5863V10.5863Z" fill="black"/>
</svg>
