<svg width="30" height="30" viewBox="0 0 30 30" fill="none" xmlns="http://www.w3.org/2000/svg">
<path d="M10.3125 6.5625C11.0584 6.5625 11.7738 6.85882 12.3012 7.38626C12.8287 7.91371 13.125 8.62908 13.125 9.375V20.625C13.125 21.3709 12.8287 22.0863 12.3012 22.6137C11.7738 23.1412 11.0584 23.4375 10.3125 23.4375C9.56658 23.4375 8.85121 23.1412 8.32376 22.6137C7.79632 22.0863 7.5 21.3709 7.5 20.625V9.375C7.5 8.62908 7.79632 7.91371 8.32376 7.38626C8.85121 6.85882 9.56658 6.5625 10.3125 6.5625V6.5625ZM19.6875 6.5625C20.4334 6.5625 21.1488 6.85882 21.6762 7.38626C22.2037 7.91371 22.5 8.62908 22.5 9.375V20.625C22.5 21.3709 22.2037 22.0863 21.6762 22.6137C21.1488 23.1412 20.4334 23.4375 19.6875 23.4375C18.9416 23.4375 18.2262 23.1412 17.6988 22.6137C17.1713 22.0863 16.875 21.3709 16.875 20.625V9.375C16.875 8.62908 17.1713 7.91371 17.6988 7.38626C18.2262 6.85882 18.9416 6.5625 19.6875 6.5625Z" fill="black"/>
</svg>
