<svg width="30" height="30" viewBox="0 0 30 30" fill="none" xmlns="http://www.w3.org/2000/svg">
<path fill-rule="evenodd" clip-rule="evenodd" d="M15 5.625C12.9738 5.62578 11.0024 6.28299 9.38105 7.4982C7.7597 8.7134 6.57568 10.4212 6.00635 12.3658C5.43702 14.3103 5.51301 16.387 6.22296 18.2848C6.9329 20.1826 8.23857 21.7992 9.94441 22.8927C11.6503 23.9861 13.6644 24.4975 15.6853 24.3502C17.7061 24.2029 19.6249 23.4048 21.1541 22.0755C22.6833 20.7462 23.7407 18.9573 24.1679 16.9766C24.5951 14.996 24.3691 12.9302 23.5238 11.0888C23.4318 10.8649 23.4299 10.6141 23.5186 10.3889C23.6073 10.1636 23.7797 9.98145 23.9997 9.88044C24.2196 9.77942 24.4701 9.76739 24.6988 9.84687C24.9274 9.92636 25.1164 10.0912 25.2263 10.3069C26.2406 12.5167 26.5117 14.9957 25.9989 17.3726C25.4861 19.7494 24.217 21.8962 22.3818 23.4912C20.5465 25.0863 18.2439 26.0438 15.8187 26.2203C13.3936 26.3968 10.9766 25.7829 8.92967 24.4705C6.88275 23.158 5.31615 21.2177 4.46453 18.9402C3.61291 16.6627 3.52211 14.1705 4.20573 11.8371C4.88935 9.50363 6.3106 7.45446 8.25657 5.99654C10.2025 4.53861 12.5685 3.75041 15 3.75V5.625Z" fill="black"/>
<path d="M15 8.37379V1.00129C15 0.91222 15.0254 0.825004 15.0733 0.749854C15.1211 0.674704 15.1893 0.61473 15.27 0.576957C15.3506 0.539183 15.4404 0.525173 15.5287 0.536566C15.617 0.547959 15.7003 0.584285 15.7687 0.641289L20.1938 4.32754C20.4188 4.51504 20.4188 4.86004 20.1938 5.04754L15.7687 8.73379C15.7003 8.79079 15.617 8.82712 15.5287 8.83851C15.4404 8.84991 15.3506 8.8359 15.27 8.79812C15.1893 8.76035 15.1211 8.70038 15.0733 8.62523C15.0254 8.55007 15 8.46286 15 8.37379V8.37379Z" fill="black"/>
</svg>
