<svg width="30" height="30" viewBox="0 0 30 30" fill="none" xmlns="http://www.w3.org/2000/svg">
<path d="M21.63 26.2687C23.1122 24.7906 24.2877 23.0342 25.089 21.1003C25.8902 19.1664 26.3013 17.0933 26.2988 15C26.3013 12.9067 25.8902 10.8336 25.089 8.8997C24.2877 6.96583 23.1122 5.20936 21.63 3.73125L20.3025 5.05687C21.6104 6.3611 22.6476 7.91095 23.3545 9.61733C24.0614 11.3237 24.4242 13.153 24.4219 15C24.4219 18.8831 22.8469 22.3987 20.3025 24.9431L21.63 26.2687V26.2687Z" fill="black"/>
<path d="M18.9769 23.6175C20.1103 22.4871 21.0091 21.1439 21.6218 19.665C22.2344 18.1861 22.5488 16.6008 22.5469 15C22.5488 13.3992 22.2344 11.8139 21.6218 10.335C21.0091 8.85614 20.1103 7.51291 18.9769 6.3825L17.6512 7.70812C18.6103 8.66465 19.3708 9.80126 19.8892 11.0526C20.4076 12.304 20.6736 13.6455 20.6719 15C20.6741 16.3547 20.4085 17.6964 19.8904 18.9482C19.3724 20.1999 18.612 21.3368 17.6531 22.2937L18.9769 23.6175Z" fill="black"/>
<path d="M16.3256 20.9662C17.1103 20.1836 17.7325 19.2536 18.1566 18.2297C18.5807 17.2058 18.7983 16.1082 18.7969 15C18.7983 13.8918 18.5807 12.7941 18.1566 11.7703C17.7325 10.7464 17.1103 9.81638 16.3256 9.03374L15 10.3594C15.6103 10.9681 16.0942 11.6915 16.4241 12.4879C16.7539 13.2843 16.9231 14.138 16.9219 15C16.923 15.862 16.7537 16.7157 16.4239 17.512C16.0941 18.3084 15.6102 19.0318 15 19.6406L16.3256 20.9662ZM12.5944 6.65624C12.7532 6.73276 12.8872 6.85251 12.9811 7.00176C13.075 7.151 13.1248 7.32369 13.125 7.49999V22.5C13.1247 22.6764 13.0747 22.8492 12.9807 22.9984C12.8867 23.1477 12.7524 23.2674 12.5934 23.3437C12.4344 23.4201 12.257 23.4501 12.0817 23.4302C11.9065 23.4103 11.7404 23.3413 11.6025 23.2312L7.17187 19.6875H2.8125C2.56386 19.6875 2.3254 19.5887 2.14959 19.4129C1.97377 19.2371 1.875 18.9986 1.875 18.75V11.25C1.875 11.0014 1.97377 10.7629 2.14959 10.5871C2.3254 10.4113 2.56386 10.3125 2.8125 10.3125H7.17187L11.6025 6.76874C11.7404 6.65847 11.9067 6.58941 12.0822 6.5695C12.2577 6.5496 12.4352 6.57967 12.5944 6.65624V6.65624Z" fill="black"/>
</svg>
